<svg width="50" height="50" viewBox="0 0 50 50" fill="none" xmlns="http://www.w3.org/2000/svg">
<g clip-path="url(#clip0_606_2)">
<path d="M25 3.125C30.8016 3.125 36.3656 5.42968 40.468 9.53204C44.5703 13.6344 46.875 19.1984 46.875 25C46.875 30.8016 44.5703 36.3656 40.468 40.468C36.3656 44.5703 30.8016 46.875 25 46.875C19.1984 46.875 13.6344 44.5703 9.53204 40.468C5.42968 36.3656 3.125 30.8016 3.125 25C3.125 19.1984 5.42968 13.6344 9.53204 9.53204C13.6344 5.42968 19.1984 3.125 25 3.125ZM25 50C31.6304 50 37.9893 47.3661 42.6777 42.6777C47.3661 37.9893 50 31.6304 50 25C50 18.3696 47.3661 12.0107 42.6777 7.32233C37.9893 2.63392 31.6304 0 25 0C18.3696 0 12.0107 2.63392 7.32233 7.32233C2.63392 12.0107 0 18.3696 0 25C0 31.6304 2.63392 37.9893 7.32233 42.6777C12.0107 47.3661 18.3696 50 25 50ZM16.084 16.084C15.4785 16.6895 15.4785 17.6855 16.084 18.291L22.793 25L16.084 31.709C15.4785 32.3145 15.4785 33.3105 16.084 33.916C16.6895 34.5215 17.6855 34.5215 18.291 33.916L25 27.207L31.709 33.916C32.3145 34.5215 33.3105 34.5215 33.916 33.916C34.5215 33.3105 34.5215 32.3145 33.916 31.709L27.207 25L33.916 18.291C34.5215 17.6855 34.5215 16.6895 33.916 16.084C33.3105 15.4785 32.3145 15.4785 31.709 16.084L25 22.793L18.291 16.084C17.6855 15.4785 16.6895 15.4785 16.084 16.084Z" fill="#002060"/>
</g>
<defs>
<clipPath id="clip0_606_2">
<rect width="50" height="50" fill="white"/>
</clipPath>
</defs>
</svg>
