<svg width="50" height="50" viewBox="0 0 50 50" fill="none" xmlns="http://www.w3.org/2000/svg">
<g clip-path="url(#clip0_597_14)">
<path d="M44.7309 4.07852L45.9215 5.26911C47.1514 6.49907 47.1514 8.49651 45.9215 9.72646L43.2943 12.3536L37.6464 6.7057L40.2834 4.07852C41.5133 2.84857 43.5108 2.84857 44.7407 4.07852H44.7309ZM18.5969 25.7552L35.4226 8.93929L41.0705 14.5872L24.2448 31.413C23.8315 31.8262 23.3002 32.1214 22.7295 32.2592L16.2747 33.745L17.7605 27.2902C17.8884 26.7195 18.1836 26.1881 18.6067 25.7749L18.5969 25.7552ZM38.0498 1.84493L16.3731 23.5314C15.5367 24.3678 14.9562 25.4206 14.6905 26.5719L12.6341 35.4866C12.516 36.0179 12.6734 36.5689 13.0572 36.9527C13.4409 37.3364 13.9919 37.4939 14.5233 37.3758L23.438 35.3193C24.5892 35.0536 25.642 34.4731 26.4784 33.6367L48.1551 11.9502C50.615 9.49031 50.615 5.50526 48.1551 3.04536L46.9645 1.84493C44.5046 -0.614976 40.5195 -0.614976 38.0596 1.84493H38.0498ZM7.87169 5.91853C3.52258 5.91853 0 9.44111 0 13.7902V42.1283C0 46.4774 3.52258 50 7.87169 50H36.2098C40.5589 50 44.0815 46.4774 44.0815 42.1283V29.5336C44.0815 28.6677 43.373 27.9593 42.5071 27.9593C41.6412 27.9593 40.9328 28.6677 40.9328 29.5336V42.1283C40.9328 44.7358 38.8173 46.8513 36.2098 46.8513H7.87169C5.26419 46.8513 3.14868 44.7358 3.14868 42.1283V13.7902C3.14868 11.1827 5.26419 9.0672 7.87169 9.0672H20.4664C21.3323 9.0672 22.0407 8.35875 22.0407 7.49287C22.0407 6.62698 21.3323 5.91853 20.4664 5.91853H7.87169Z" fill="#002060"/>
</g>
<defs>
<clipPath id="clip0_597_14">
<rect width="50" height="50" fill="white"/>
</clipPath>
</defs>
</svg>
