<svg width="50" height="50" viewBox="0 0 50 50" fill="none" xmlns="http://www.w3.org/2000/svg">
<path d="M19.0469 4.10985C19.2344 3.46591 19.825 3.0303 20.4813 3.0303H29.5188C30.1844 3.0303 30.7656 3.46591 30.9531 4.10985L31.9844 7.57576H18.0156L19.0469 4.10985ZM14.8844 7.57576H5.5C4.675 7.57576 4 8.25758 4 9.09091C4 9.92424 4.675 10.6061 5.5 10.6061H44.5C45.325 10.6061 46 9.92424 46 9.09091C46 8.25758 45.325 7.57576 44.5 7.57576H35.1156L33.8313 3.23864C33.2594 1.31629 31.5063 0 29.5188 0H20.4813C18.4938 0 16.7406 1.31629 16.1688 3.23864L14.8844 7.57576ZM6.69063 15.1515L8.8375 44.3845C9.07187 47.5473 11.6781 50 14.8188 50H35.1719C38.3125 50 40.9187 47.5473 41.1531 44.3845L43.3 15.1515H40.2906L38.1625 44.1667C38.05 45.7481 36.7375 46.9697 35.1719 46.9697H14.8188C13.2438 46.9697 11.9406 45.7481 11.8281 44.1667L9.7 15.1515H6.69063Z" fill="#002060"/>
</svg>
